<svg width="91" height="91" xmlns="http://www.w3.org/2000/svg">

 <g>
  <title>background</title>
  <rect fill="none" id="canvas_background" height="402" width="582" y="-1" x="-1"/>
 </g>
 <g>
  <title>Layer 1</title>
  <path fill="#0a4728" id="svg_2" d="m43.9,49.5c0,0 -0.1,0 -0.1,0c-0.5,0 -0.9,-0.3 -1.2,-0.7l-7,-9.6l2.7,-2l5.8,8l17.9,-18.3c-2.8,-3.2 -7.8,-6.9 -15.8,-6.9c-11.7,0 -21.2,9.6 -21.2,21.3c0,9.6 6.7,18.2 15.9,20.6l1.8,4.8c-5,0.3 -13.4,1.5 -13.4,5.7c0,5.7 15.2,5.9 17,5.9s17,-0.2 17,-5.9c0,-4.3 -8.5,-5.4 -13.5,-5.7l1.7,-4.7c9.4,-2.3 16.1,-10.9 16.1,-20.6c0,-4 -1.3,-8.1 -3.5,-11.6l-19,19.2c-0.3,0.3 -0.8,0.5 -1.2,0.5zm15.8,22.9c-1,1 -5.9,2.5 -13.5,2.5c-7.5,0 -12.4,-1.5 -13.5,-2.5c0.9,-0.9 5,-2.2 11.2,-2.4l1.1,2.9c0.2,0.5 0.6,0.8 1.2,0.8c0,0 0,0 0,0c0.5,0 1,-0.3 1.2,-0.8l1,-2.9c6.3,0.2 10.4,1.5 11.3,2.4z"/>
  <path fill="#06381e" id="svg_3" d="m65.5,23.3l-3.5,3.6c0.1,0.1 0.2,0.3 0.4,0.4c0.6,0.7 1.2,1.5 1.7,2.3l3.9,-4l-2.5,-2.3z"/>
 </g>
</svg>